<?xml version="1.0" standalone="no"?>
<!DOCTYPE svg PUBLIC "-//W3C//DTD SVG 20010904//EN"
 "http://www.w3.org/TR/2001/REC-SVG-20010904/DTD/svg10.dtd">
<svg version="1.0" xmlns="http://www.w3.org/2000/svg"
 width="260.000000pt" height="260.000000pt" viewBox="0 0 260.000000 260.000000"
 preserveAspectRatio="xMidYMid meet">
<metadata>
Created by potrace 1.11, written by Peter Selinger 2001-2013
</metadata>
<g transform="translate(0.000000,260.000000) scale(0.100000,-0.100000)"
fill="#000000" stroke="none">
<path d="M314 2592 c6 -10 -93 -48 -114 -43 -8 1 -12 0 -8 -4 9 -9 -33 -56
-44 -49 -4 3 -8 -2 -8 -11 0 -9 -4 -14 -9 -10 -6 3 -17 -10 -27 -30 -9 -19
-22 -35 -29 -35 -8 0 -27 -36 -44 -80 l-31 -79 0 -1000 c0 -974 0 -1000 19
-996 14 2 23 -7 36 -36 10 -21 21 -39 25 -39 4 0 18 -16 31 -35 13 -19 28 -35
32 -35 10 0 42 -31 42 -41 0 -4 4 -11 9 -16 5 -5 6 -3 2 5 -10 17 -7 16 65
-20 l64 -33 965 0 965 0 49 22 c26 13 53 20 59 16 6 -3 7 -1 3 5 -6 11 6 16
27 13 4 0 7 4 7 9 0 6 7 10 15 10 8 0 15 4 15 9 0 5 25 35 55 66 30 31 55 60
55 66 0 5 9 28 19 52 11 23 24 60 30 82 7 27 11 341 11 948 0 1000 2 971 -61
1065 -16 24 -29 46 -29 49 0 10 -96 99 -114 106 -10 4 -14 12 -10 18 4 7 3 9
-3 6 -6 -4 -37 5 -69 21 l-59 27 -973 2 c-535 1 -971 -1 -968 -5z"/>
</g>
</svg>
